
<svg xmlns="http://www.w3.org/2000/svg" viewBox="0 0 200 400" fill="none" stroke="white" stroke-width="2">
  <path d="M100,10 C85,10 75,20 75,30 C75,40 85,50 100,50 C115,50 125,40 125,30 C125,20 115,10 100,10 Z" />
  <path d="M80,50 L80,80 L70,110 L75,140 C65,150 60,160 60,180 C65,190 75,195 85,190 L85,210 L75,250 L85,350 L75,380 L85,390 L95,350 L95,250 L100,250 L105,250 L105,350 L115,390 L125,380 L115,350 L115,250 L105,210 L105,190 C115,195 125,190 130,180 C130,160 125,150 115,140 L120,110 L110,80 L120,50 Z" />
  <path d="M75,140 L50,165 L40,200 L60,205" />
  <path d="M115,140 L150,165 L160,200 L140,205" />
  <ellipse cx="85" cy="160" rx="10" ry="8" />
  <ellipse cx="115" cy="160" rx="10" ry="8" />
</svg>
