
<svg xmlns="http://www.w3.org/2000/svg" viewBox="0 0 200 400" fill="none" stroke="white" stroke-width="2">
  <path d="M100,10 C85,10 75,20 75,30 C75,40 85,50 100,50 C115,50 125,40 125,30 C125,20 115,10 100,10 Z" />
  <path d="M80,50 L80,80 L70,120 L70,180 L85,250 L85,350 L75,380 L85,390 L95,350 L95,250 L100,250 L105,250 L105,350 L115,390 L125,380 L115,350 L115,250 L130,180 L130,120 L120,80 L120,50 Z" />
  <path d="M70,120 L50,150 L40,200 L60,205" />
  <path d="M130,120 L150,150 L160,200 L140,205" />
</svg>
